<mxfile host="app.diagrams.net" modified="2023-10-08T19:30:07.958Z" agent="Mozilla/5.0 (Windows NT 10.0; Win64; x64) AppleWebKit/537.36 (KHTML, like Gecko) Chrome/117.0.0.0 Safari/537.36" etag="ELgUfDGfsezyAukqZoIB" version="21.8.1" type="device">
  <diagram name="Page-1" id="B22naHcDe_J2Sh4MeH1X">
    <mxGraphModel dx="1434" dy="806" grid="1" gridSize="10" guides="1" tooltips="1" connect="1" arrows="1" fold="1" page="1" pageScale="1" pageWidth="850" pageHeight="1100" math="0" shadow="0">
      <root>
        <mxCell id="0" />
        <mxCell id="1" parent="0" />
        <mxCell id="22J-L-3w1tQZuDe0kJz3-17" style="edgeStyle=orthogonalEdgeStyle;rounded=0;orthogonalLoop=1;jettySize=auto;html=1;exitX=1;exitY=0.5;exitDx=0;exitDy=0;entryX=0;entryY=0.5;entryDx=0;entryDy=0;endArrow=none;endFill=0;" edge="1" parent="1" source="22J-L-3w1tQZuDe0kJz3-1" target="22J-L-3w1tQZuDe0kJz3-2">
          <mxGeometry relative="1" as="geometry" />
        </mxCell>
        <mxCell id="22J-L-3w1tQZuDe0kJz3-1" value="City Gate" style="rounded=0;whiteSpace=wrap;html=1;" vertex="1" parent="1">
          <mxGeometry x="50" y="320" width="120" height="60" as="geometry" />
        </mxCell>
        <mxCell id="22J-L-3w1tQZuDe0kJz3-18" style="edgeStyle=orthogonalEdgeStyle;rounded=0;orthogonalLoop=1;jettySize=auto;html=1;exitX=0.5;exitY=1;exitDx=0;exitDy=0;entryX=0.5;entryY=0;entryDx=0;entryDy=0;endArrow=none;endFill=0;" edge="1" parent="1" source="22J-L-3w1tQZuDe0kJz3-2" target="22J-L-3w1tQZuDe0kJz3-9">
          <mxGeometry relative="1" as="geometry" />
        </mxCell>
        <mxCell id="22J-L-3w1tQZuDe0kJz3-19" style="edgeStyle=orthogonalEdgeStyle;rounded=0;orthogonalLoop=1;jettySize=auto;html=1;exitX=1;exitY=0.5;exitDx=0;exitDy=0;entryX=0;entryY=0.5;entryDx=0;entryDy=0;endArrow=none;endFill=0;" edge="1" parent="1" source="22J-L-3w1tQZuDe0kJz3-2" target="22J-L-3w1tQZuDe0kJz3-12">
          <mxGeometry relative="1" as="geometry" />
        </mxCell>
        <mxCell id="22J-L-3w1tQZuDe0kJz3-2" value="Market" style="rounded=1;whiteSpace=wrap;html=1;" vertex="1" parent="1">
          <mxGeometry x="210" y="320" width="120" height="60" as="geometry" />
        </mxCell>
        <mxCell id="22J-L-3w1tQZuDe0kJz3-21" style="edgeStyle=orthogonalEdgeStyle;rounded=0;orthogonalLoop=1;jettySize=auto;html=1;exitX=0.5;exitY=1;exitDx=0;exitDy=0;endArrow=none;endFill=0;" edge="1" parent="1" source="22J-L-3w1tQZuDe0kJz3-3" target="22J-L-3w1tQZuDe0kJz3-7">
          <mxGeometry relative="1" as="geometry" />
        </mxCell>
        <mxCell id="22J-L-3w1tQZuDe0kJz3-22" style="edgeStyle=orthogonalEdgeStyle;rounded=0;orthogonalLoop=1;jettySize=auto;html=1;exitX=1;exitY=0.5;exitDx=0;exitDy=0;entryX=0;entryY=0.5;entryDx=0;entryDy=0;endArrow=none;endFill=0;" edge="1" parent="1" source="22J-L-3w1tQZuDe0kJz3-3" target="22J-L-3w1tQZuDe0kJz3-5">
          <mxGeometry relative="1" as="geometry" />
        </mxCell>
        <mxCell id="22J-L-3w1tQZuDe0kJz3-3" value="Religious Elite&lt;br&gt;&amp;nbsp;District" style="whiteSpace=wrap;html=1;rounded=1;" vertex="1" parent="1">
          <mxGeometry x="510" y="320" width="120" height="60" as="geometry" />
        </mxCell>
        <mxCell id="22J-L-3w1tQZuDe0kJz3-5" value="Palace" style="whiteSpace=wrap;html=1;rounded=1;" vertex="1" parent="1">
          <mxGeometry x="660" y="320" width="120" height="60" as="geometry" />
        </mxCell>
        <mxCell id="22J-L-3w1tQZuDe0kJz3-7" value="Lakeside" style="whiteSpace=wrap;html=1;rounded=1;" vertex="1" parent="1">
          <mxGeometry x="510" y="420" width="120" height="60" as="geometry" />
        </mxCell>
        <mxCell id="22J-L-3w1tQZuDe0kJz3-16" value="" style="edgeStyle=orthogonalEdgeStyle;rounded=0;orthogonalLoop=1;jettySize=auto;html=1;endArrow=none;endFill=0;" edge="1" parent="1" source="22J-L-3w1tQZuDe0kJz3-9" target="22J-L-3w1tQZuDe0kJz3-15">
          <mxGeometry relative="1" as="geometry" />
        </mxCell>
        <mxCell id="22J-L-3w1tQZuDe0kJz3-9" value="Poor District" style="whiteSpace=wrap;html=1;rounded=1;" vertex="1" parent="1">
          <mxGeometry x="210" y="420" width="120" height="60" as="geometry" />
        </mxCell>
        <mxCell id="22J-L-3w1tQZuDe0kJz3-20" style="edgeStyle=orthogonalEdgeStyle;rounded=0;orthogonalLoop=1;jettySize=auto;html=1;exitX=0.5;exitY=1;exitDx=0;exitDy=0;entryX=0.5;entryY=0;entryDx=0;entryDy=0;endArrow=none;endFill=0;" edge="1" parent="1" source="22J-L-3w1tQZuDe0kJz3-12" target="22J-L-3w1tQZuDe0kJz3-15">
          <mxGeometry relative="1" as="geometry" />
        </mxCell>
        <mxCell id="22J-L-3w1tQZuDe0kJz3-23" style="edgeStyle=orthogonalEdgeStyle;rounded=0;orthogonalLoop=1;jettySize=auto;html=1;exitX=1;exitY=0.5;exitDx=0;exitDy=0;entryX=0;entryY=0.5;entryDx=0;entryDy=0;endArrow=none;endFill=0;" edge="1" parent="1" source="22J-L-3w1tQZuDe0kJz3-12" target="22J-L-3w1tQZuDe0kJz3-3">
          <mxGeometry relative="1" as="geometry" />
        </mxCell>
        <mxCell id="22J-L-3w1tQZuDe0kJz3-12" value="Artisan&lt;br&gt;District" style="whiteSpace=wrap;html=1;rounded=1;" vertex="1" parent="1">
          <mxGeometry x="360" y="320" width="120" height="60" as="geometry" />
        </mxCell>
        <mxCell id="22J-L-3w1tQZuDe0kJz3-24" style="edgeStyle=orthogonalEdgeStyle;rounded=0;orthogonalLoop=1;jettySize=auto;html=1;exitX=1;exitY=0.5;exitDx=0;exitDy=0;entryX=0;entryY=0.5;entryDx=0;entryDy=0;endArrow=none;endFill=0;" edge="1" parent="1" source="22J-L-3w1tQZuDe0kJz3-15" target="22J-L-3w1tQZuDe0kJz3-7">
          <mxGeometry relative="1" as="geometry" />
        </mxCell>
        <mxCell id="22J-L-3w1tQZuDe0kJz3-15" value="Military District" style="whiteSpace=wrap;html=1;rounded=1;" vertex="1" parent="1">
          <mxGeometry x="360" y="420" width="120" height="60" as="geometry" />
        </mxCell>
      </root>
    </mxGraphModel>
  </diagram>
</mxfile>
